# xmcd CD database file
# Copyright (C) 1993-1998 Ti Kan
#
# Track frame offsets:
#    150
#    20039
#    43664
#    61066
#    76428
#    88617
#    106382
#    132497
#    217749
#    224326
#    233453
#    254180
#    269832
#    296197
#    310474
#    314013
#
# Disc length: 4373 seconds
#
# Revision: 2
# Processed by: cddbd v1.5.1PL2 Copyright (c) Steve Scherf et al.
# Submitted via: MyCDplayer 5.0.0b  (wjohn@fix.net)
#
DISCID=fb111310
DTITLE=Stevie Ray Vaughan And Double Trouble /
DTITLE=Accolades - Disc 3
DYEAR=1900
DGENRE=
TTITLE0=Testify
TTITLE1=Come On Instrumental
TTITLE2=Rude Mood
TTITLE3=Empty Arms
TTITLE4=Instrumental
TTITLE5=Say What!
TTITLE6=May I Have A Little Talk With You
TTITLE7=Little Wing - Third Stone From The Sun
TTITLE8=The Sky Is Crying
TTITLE9=The Sky Is Crying
TTITLE10=The Sky Is Crying
TTITLE11=Boot Hill
TTITLE12=Come On (Part 3)
TTITLE13=Say What!
TTITLE14=Say What!
TTITLE15=Say What!
EXTD=
EXTT0=
EXTT1=
EXTT2=
EXTT3=
EXTT4=
EXTT5=
EXTT6=
EXTT7=
EXTT8=
EXTT9=
EXTT10=
EXTT11=
EXTT12=
EXTT13=
EXTT14=
EXTT15=
PLAYORDER=
